<svg xmlns="http://www.w3.org/2000/svg" width="920" height="520" viewBox="0 0 920 520">
<rect width="100%" height="100%" fill="white"/>
<text x="75" y="24" font-family="sans-serif" font-size="16">Stage 1 strict occurred-event/evidence F1 by checkpoint</text>
<line x1="75" y1="440.0" x2="675" y2="440.0" stroke="#dddddd"/>
<text x="67" y="444.0" text-anchor="end" font-family="sans-serif" font-size="11">0.0</text>
<line x1="75" y1="360.0" x2="675" y2="360.0" stroke="#dddddd"/>
<text x="67" y="364.0" text-anchor="end" font-family="sans-serif" font-size="11">0.2</text>
<line x1="75" y1="280.0" x2="675" y2="280.0" stroke="#dddddd"/>
<text x="67" y="284.0" text-anchor="end" font-family="sans-serif" font-size="11">0.4</text>
<line x1="75" y1="200.0" x2="675" y2="200.0" stroke="#dddddd"/>
<text x="67" y="204.0" text-anchor="end" font-family="sans-serif" font-size="11">0.6</text>
<line x1="75" y1="120.0" x2="675" y2="120.0" stroke="#dddddd"/>
<text x="67" y="124.0" text-anchor="end" font-family="sans-serif" font-size="11">0.8</text>
<line x1="75" y1="40.0" x2="675" y2="40.0" stroke="#dddddd"/>
<text x="67" y="44.0" text-anchor="end" font-family="sans-serif" font-size="11">1.0</text>
<text x="75.0" y="460" text-anchor="middle" font-family="sans-serif" font-size="10">15</text>
<text x="106.6" y="460" text-anchor="middle" font-family="sans-serif" font-size="10">30</text>
<text x="138.2" y="460" text-anchor="middle" font-family="sans-serif" font-size="10">45</text>
<text x="169.7" y="460" text-anchor="middle" font-family="sans-serif" font-size="10">60</text>
<text x="201.3" y="460" text-anchor="middle" font-family="sans-serif" font-size="10">75</text>
<text x="232.9" y="460" text-anchor="middle" font-family="sans-serif" font-size="10">90</text>
<text x="264.5" y="460" text-anchor="middle" font-family="sans-serif" font-size="10">105</text>
<text x="296.1" y="460" text-anchor="middle" font-family="sans-serif" font-size="10">120</text>
<text x="327.6" y="460" text-anchor="middle" font-family="sans-serif" font-size="10">135</text>
<text x="359.2" y="460" text-anchor="middle" font-family="sans-serif" font-size="10">150</text>
<text x="390.8" y="460" text-anchor="middle" font-family="sans-serif" font-size="10">165</text>
<text x="422.4" y="460" text-anchor="middle" font-family="sans-serif" font-size="10">180</text>
<text x="453.9" y="460" text-anchor="middle" font-family="sans-serif" font-size="10">195</text>
<text x="485.5" y="460" text-anchor="middle" font-family="sans-serif" font-size="10">210</text>
<text x="517.1" y="460" text-anchor="middle" font-family="sans-serif" font-size="10">225</text>
<text x="548.7" y="460" text-anchor="middle" font-family="sans-serif" font-size="10">240</text>
<text x="580.3" y="460" text-anchor="middle" font-family="sans-serif" font-size="10">255</text>
<text x="611.8" y="460" text-anchor="middle" font-family="sans-serif" font-size="10">270</text>
<text x="643.4" y="460" text-anchor="middle" font-family="sans-serif" font-size="10">285</text>
<text x="675.0" y="460" text-anchor="middle" font-family="sans-serif" font-size="10">300</text>
<polyline fill="none" stroke="#0072B2" stroke-width="2" points="75.0,166.7 106.6,166.7 138.2,156.4 169.7,167.9 201.3,184.4 232.9,169.7 264.5,155.8 296.1,169.3 327.6,180.2 359.2,161.0 390.8,177.1 422.4,176.4 453.9,195.5 485.5,195.4 517.1,198.9 548.7,196.2 580.3,209.7 611.8,217.0 643.4,218.0 675.0,207.9"/>
<line x1="700" y1="55" x2="724" y2="55" stroke="#0072B2" stroke-width="3"/>
<text x="732" y="59" font-family="sans-serif" font-size="10">fc_openrouter_qwen_3_5_122b_a10b</text>
</svg>
