<?xml version="1.0" encoding="UTF-8"?>
<svg xmlns="http://www.w3.org/2000/svg" width="1000" height="700" viewBox="0 0 1000 700" role="img" aria-label="Dynamic-path Final State Accuracy by Checkpoint">
<style>
text { font-family: Arial, 'DejaVu Sans', sans-serif; fill: #17202A; }
.title { font-size: 26px; font-weight: 700; }
.subtitle { font-size: 15px; fill: #5B6573; }
.axis-label { font-size: 16px; font-weight: 600; }
.tick { font-size: 14px; fill: #4B5563; }
.legend { font-size: 14px; font-weight: 600; }
.legend-label { font-size: 13px; fill: #4B5563; }
</style>
<rect width="1000" height="700" fill="#FFFFFF"/>
<text x="500" y="42" text-anchor="middle" class="title">Dynamic-path Final State Accuracy by Checkpoint</text>
<text x="500" y="70" text-anchor="middle" class="subtitle">Full Context · traj_010 · 5 anchor checkpoints · n = 1 trajectory</text>
<line x1="205" y1="108" x2="243" y2="108" stroke="#2672B8" stroke-width="3"/>
<circle cx="224.0" cy="108.0" r="6" fill="#2672B8" stroke="#2672B8" stroke-width="2.4"/>
<text x="253" y="113" class="legend">Claude Opus 5</text>
<line x1="445" y1="108" x2="483" y2="108" stroke="#D97706" stroke-width="3"/>
<rect x="458.0" y="102.0" width="12" height="12" rx="1" fill="#D97706" stroke="#D97706" stroke-width="2.4"/>
<text x="493" y="113" class="legend">Gemini 3.1 Pro Preview</text>
<line x1="725" y1="108" x2="763" y2="108" stroke="#4D7C0F" stroke-width="3"/>
<polygon points="744.0,101.0 737.0,114.0 751.0,114.0" fill="#4D7C0F" stroke="#4D7C0F" stroke-width="2.4"/>
<text x="773" y="113" class="legend">GPT-5.6 Sol</text>
<line x1="275" y1="155" x2="319" y2="155" stroke="#34495E" stroke-width="3"/>
<circle cx="297.0" cy="155.0" r="6" fill="#34495E" stroke="#34495E" stroke-width="2.4"/>
<text x="329" y="153" class="legend">Medium</text>
<text x="329" y="171" class="legend-label">plan 9469ed3620c3</text>
<line x1="585" y1="155" x2="629" y2="155" stroke="#34495E" stroke-width="3" stroke-dasharray="9 6"/>
<circle cx="607.0" cy="155.0" r="6" fill="#FFFFFF" stroke="#34495E" stroke-width="2.4"/>
<text x="639" y="153" class="legend">Low</text>
<text x="639" y="171" class="legend-label">plan 460647a3a1bc</text>
<line x1="105" y1="590.0" x2="955" y2="590.0" stroke="#DDE3EA" stroke-width="1"/>
<text x="91" y="595.0" text-anchor="end" class="tick">0%</text>
<line x1="105" y1="514.0" x2="955" y2="514.0" stroke="#DDE3EA" stroke-width="1"/>
<text x="91" y="519.0" text-anchor="end" class="tick">20%</text>
<line x1="105" y1="438.0" x2="955" y2="438.0" stroke="#DDE3EA" stroke-width="1"/>
<text x="91" y="443.0" text-anchor="end" class="tick">40%</text>
<line x1="105" y1="362.0" x2="955" y2="362.0" stroke="#DDE3EA" stroke-width="1"/>
<text x="91" y="367.0" text-anchor="end" class="tick">60%</text>
<line x1="105" y1="286.0" x2="955" y2="286.0" stroke="#DDE3EA" stroke-width="1"/>
<text x="91" y="291.0" text-anchor="end" class="tick">80%</text>
<line x1="105" y1="210.0" x2="955" y2="210.0" stroke="#DDE3EA" stroke-width="1"/>
<text x="91" y="215.0" text-anchor="end" class="tick">100%</text>
<line x1="105" y1="210" x2="105" y2="590" stroke="#7B8794" stroke-width="1.3"/>
<line x1="105" y1="590" x2="955" y2="590" stroke="#7B8794" stroke-width="1.3"/>
<line x1="105.0" y1="590" x2="105.0" y2="596" stroke="#7B8794" stroke-width="1"/>
<text x="105.0" y="618" text-anchor="middle" class="tick">60</text>
<line x1="317.5" y1="590" x2="317.5" y2="596" stroke="#7B8794" stroke-width="1"/>
<text x="317.5" y="618" text-anchor="middle" class="tick">120</text>
<line x1="530.0" y1="590" x2="530.0" y2="596" stroke="#7B8794" stroke-width="1"/>
<text x="530.0" y="618" text-anchor="middle" class="tick">180</text>
<line x1="742.5" y1="590" x2="742.5" y2="596" stroke="#7B8794" stroke-width="1"/>
<text x="742.5" y="618" text-anchor="middle" class="tick">240</text>
<line x1="955.0" y1="590" x2="955.0" y2="596" stroke="#7B8794" stroke-width="1"/>
<text x="955.0" y="618" text-anchor="middle" class="tick">300</text>
<polyline points="105.0,255.6 317.5,210.0 530.0,210.0 742.5,270.8 955.0,255.6" fill="none" stroke="#2672B8" stroke-width="3" stroke-linejoin="round" stroke-linecap="round"/>
<circle cx="105.0" cy="255.6" r="6" fill="#2672B8" stroke="#2672B8" stroke-width="2.4"/>
<circle cx="317.5" cy="210.0" r="6" fill="#2672B8" stroke="#2672B8" stroke-width="2.4"/>
<circle cx="530.0" cy="210.0" r="6" fill="#2672B8" stroke="#2672B8" stroke-width="2.4"/>
<circle cx="742.5" cy="270.8" r="6" fill="#2672B8" stroke="#2672B8" stroke-width="2.4"/>
<circle cx="955.0" cy="255.6" r="6" fill="#2672B8" stroke="#2672B8" stroke-width="2.4"/>
<polyline points="105.0,255.6 317.5,210.0 530.0,240.4 742.5,331.6 955.0,255.6" fill="none" stroke="#2672B8" stroke-width="3" stroke-linejoin="round" stroke-linecap="round" stroke-dasharray="9 6"/>
<circle cx="105.0" cy="255.6" r="6" fill="#FFFFFF" stroke="#2672B8" stroke-width="2.4"/>
<circle cx="317.5" cy="210.0" r="6" fill="#FFFFFF" stroke="#2672B8" stroke-width="2.4"/>
<circle cx="530.0" cy="240.4" r="6" fill="#FFFFFF" stroke="#2672B8" stroke-width="2.4"/>
<circle cx="742.5" cy="331.6" r="6" fill="#FFFFFF" stroke="#2672B8" stroke-width="2.4"/>
<circle cx="955.0" cy="255.6" r="6" fill="#FFFFFF" stroke="#2672B8" stroke-width="2.4"/>
<polyline points="105.0,270.8 317.5,240.4 530.0,240.4 742.5,331.6 955.0,286.0" fill="none" stroke="#D97706" stroke-width="3" stroke-linejoin="round" stroke-linecap="round"/>
<rect x="99.0" y="264.8" width="12" height="12" rx="1" fill="#D97706" stroke="#D97706" stroke-width="2.4"/>
<rect x="311.5" y="234.4" width="12" height="12" rx="1" fill="#D97706" stroke="#D97706" stroke-width="2.4"/>
<rect x="524.0" y="234.4" width="12" height="12" rx="1" fill="#D97706" stroke="#D97706" stroke-width="2.4"/>
<rect x="736.5" y="325.6" width="12" height="12" rx="1" fill="#D97706" stroke="#D97706" stroke-width="2.4"/>
<rect x="949.0" y="280.0" width="12" height="12" rx="1" fill="#D97706" stroke="#D97706" stroke-width="2.4"/>
<polyline points="105.0,286.0 317.5,240.4 530.0,270.8 742.5,331.6 955.0,286.0" fill="none" stroke="#D97706" stroke-width="3" stroke-linejoin="round" stroke-linecap="round" stroke-dasharray="9 6"/>
<rect x="99.0" y="280.0" width="12" height="12" rx="1" fill="#FFFFFF" stroke="#D97706" stroke-width="2.4"/>
<rect x="311.5" y="234.4" width="12" height="12" rx="1" fill="#FFFFFF" stroke="#D97706" stroke-width="2.4"/>
<rect x="524.0" y="264.8" width="12" height="12" rx="1" fill="#FFFFFF" stroke="#D97706" stroke-width="2.4"/>
<rect x="736.5" y="325.6" width="12" height="12" rx="1" fill="#FFFFFF" stroke="#D97706" stroke-width="2.4"/>
<rect x="949.0" y="280.0" width="12" height="12" rx="1" fill="#FFFFFF" stroke="#D97706" stroke-width="2.4"/>
<polyline points="105.0,286.0 317.5,286.0 530.0,286.0 742.5,362.0 955.0,316.4" fill="none" stroke="#4D7C0F" stroke-width="3" stroke-linejoin="round" stroke-linecap="round"/>
<polygon points="105.0,279.0 98.0,292.0 112.0,292.0" fill="#4D7C0F" stroke="#4D7C0F" stroke-width="2.4"/>
<polygon points="317.5,279.0 310.5,292.0 324.5,292.0" fill="#4D7C0F" stroke="#4D7C0F" stroke-width="2.4"/>
<polygon points="530.0,279.0 523.0,292.0 537.0,292.0" fill="#4D7C0F" stroke="#4D7C0F" stroke-width="2.4"/>
<polygon points="742.5,355.0 735.5,368.0 749.5,368.0" fill="#4D7C0F" stroke="#4D7C0F" stroke-width="2.4"/>
<polygon points="955.0,309.4 948.0,322.4 962.0,322.4" fill="#4D7C0F" stroke="#4D7C0F" stroke-width="2.4"/>
<polyline points="105.0,301.2 317.5,240.4 530.0,286.0 742.5,362.0 955.0,316.4" fill="none" stroke="#4D7C0F" stroke-width="3" stroke-linejoin="round" stroke-linecap="round" stroke-dasharray="9 6"/>
<polygon points="105.0,294.2 98.0,307.2 112.0,307.2" fill="#FFFFFF" stroke="#4D7C0F" stroke-width="2.4"/>
<polygon points="317.5,233.4 310.5,246.4 324.5,246.4" fill="#FFFFFF" stroke="#4D7C0F" stroke-width="2.4"/>
<polygon points="530.0,279.0 523.0,292.0 537.0,292.0" fill="#FFFFFF" stroke="#4D7C0F" stroke-width="2.4"/>
<polygon points="742.5,355.0 735.5,368.0 749.5,368.0" fill="#FFFFFF" stroke="#4D7C0F" stroke-width="2.4"/>
<polygon points="955.0,309.4 948.0,322.4 962.0,322.4" fill="#FFFFFF" stroke="#4D7C0F" stroke-width="2.4"/>
<text x="530" y="668" text-anchor="middle" class="axis-label">Dialogue checkpoint (sessions)</text>
<text x="28" y="400" text-anchor="middle" class="axis-label" transform="rotate(-90 28 400)">Score (%)</text>
</svg>
