<svg xmlns="http://www.w3.org/2000/svg" width="920" height="520" viewBox="0 0 920 520">
<rect width="100%" height="100%" fill="white"/>
<text x="75" y="24" font-family="sans-serif" font-size="16">dynamic_path_final_state_accuracy</text>
<line x1="75" y1="440.0" x2="675" y2="440.0" stroke="#dddddd"/>
<text x="67" y="444.0" text-anchor="end" font-family="sans-serif" font-size="11">0.0</text>
<line x1="75" y1="360.0" x2="675" y2="360.0" stroke="#dddddd"/>
<text x="67" y="364.0" text-anchor="end" font-family="sans-serif" font-size="11">0.2</text>
<line x1="75" y1="280.0" x2="675" y2="280.0" stroke="#dddddd"/>
<text x="67" y="284.0" text-anchor="end" font-family="sans-serif" font-size="11">0.4</text>
<line x1="75" y1="200.0" x2="675" y2="200.0" stroke="#dddddd"/>
<text x="67" y="204.0" text-anchor="end" font-family="sans-serif" font-size="11">0.6</text>
<line x1="75" y1="120.0" x2="675" y2="120.0" stroke="#dddddd"/>
<text x="67" y="124.0" text-anchor="end" font-family="sans-serif" font-size="11">0.8</text>
<line x1="75" y1="40.0" x2="675" y2="40.0" stroke="#dddddd"/>
<text x="67" y="44.0" text-anchor="end" font-family="sans-serif" font-size="11">1.0</text>
<text x="75.0" y="460" text-anchor="middle" font-family="sans-serif" font-size="10">15</text>
<text x="106.6" y="460" text-anchor="middle" font-family="sans-serif" font-size="10">30</text>
<text x="138.2" y="460" text-anchor="middle" font-family="sans-serif" font-size="10">45</text>
<text x="169.7" y="460" text-anchor="middle" font-family="sans-serif" font-size="10">60</text>
<text x="201.3" y="460" text-anchor="middle" font-family="sans-serif" font-size="10">75</text>
<text x="232.9" y="460" text-anchor="middle" font-family="sans-serif" font-size="10">90</text>
<text x="264.5" y="460" text-anchor="middle" font-family="sans-serif" font-size="10">105</text>
<text x="296.1" y="460" text-anchor="middle" font-family="sans-serif" font-size="10">120</text>
<text x="327.6" y="460" text-anchor="middle" font-family="sans-serif" font-size="10">135</text>
<text x="359.2" y="460" text-anchor="middle" font-family="sans-serif" font-size="10">150</text>
<text x="390.8" y="460" text-anchor="middle" font-family="sans-serif" font-size="10">165</text>
<text x="422.4" y="460" text-anchor="middle" font-family="sans-serif" font-size="10">180</text>
<text x="453.9" y="460" text-anchor="middle" font-family="sans-serif" font-size="10">195</text>
<text x="485.5" y="460" text-anchor="middle" font-family="sans-serif" font-size="10">210</text>
<text x="517.1" y="460" text-anchor="middle" font-family="sans-serif" font-size="10">225</text>
<text x="548.7" y="460" text-anchor="middle" font-family="sans-serif" font-size="10">240</text>
<text x="580.3" y="460" text-anchor="middle" font-family="sans-serif" font-size="10">255</text>
<text x="611.8" y="460" text-anchor="middle" font-family="sans-serif" font-size="10">270</text>
<text x="643.4" y="460" text-anchor="middle" font-family="sans-serif" font-size="10">285</text>
<text x="675.0" y="460" text-anchor="middle" font-family="sans-serif" font-size="10">300</text>
<polyline fill="none" stroke="#0072B2" stroke-width="2" points="75.0,40.0 106.6,40.0 138.2,40.0 169.7,120.0 201.3,104.0 232.9,40.0 264.5,56.0 296.1,40.0 327.6,56.0 359.2,120.0 390.8,88.0 422.4,136.0 453.9,168.0 485.5,184.0 517.1,152.0 548.7,216.0 580.3,120.0 611.8,104.0 643.4,184.0 675.0,136.0"/>
<line x1="700" y1="55" x2="724" y2="55" stroke="#0072B2" stroke-width="3"/>
<text x="732" y="59" font-family="sans-serif" font-size="10">fc_claude_opus_4_8</text>
<polyline fill="none" stroke="#D55E00" stroke-width="2" points="75.0,56.0 106.6,72.0 138.2,56.0 169.7,104.0 201.3,136.0 232.9,88.0 264.5,56.0 296.1,72.0 327.6,72.0 359.2,136.0 390.8,120.0 422.4,104.0 453.9,200.0 485.5,232.0 517.1,200.0 548.7,184.0 580.3,232.0 611.8,184.0 643.4,200.0 675.0,168.0"/>
<line x1="700" y1="79" x2="724" y2="79" stroke="#D55E00" stroke-width="3"/>
<text x="732" y="83" font-family="sans-serif" font-size="10">fc_gpt_5_6_sol</text>
</svg>
