<svg viewBox="0 0 1240 796" role="img" aria-label="sample life path timeline">
<rect x="0" y="0" width="100%" height="100%" fill="#f8fafc" />
<text x="24" y="36" font-size="20" font-weight="700">Sample Life Path Timeline</text>
<text x="24" y="58" font-size="12" fill="#475569">x-axis: age in years, y-axis: sampled core_subgraph, edge color: sampled core_subgraph</text>
<line x1="230" y1="200" x2="1190" y2="200" stroke="#cbd5e1" />
<circle cx="212" cy="200" r="5" fill="#2563eb" />
<text x="24" y="196" font-size="13" font-weight="700">회사 지원 유학-복귀</text>
<text x="24" y="214" font-size="10" fill="#64748b">employer_sponsored_study_obligation_arc</text>
<line x1="230" y1="324" x2="1190" y2="324" stroke="#cbd5e1" />
<circle cx="212" cy="324" r="5" fill="#16a34a" />
<text x="24" y="320" font-size="13" font-weight="700">결혼</text>
<text x="24" y="338" font-size="10" fill="#64748b">marriage_only_core</text>
<line x1="230" y1="448" x2="1190" y2="448" stroke="#cbd5e1" />
<circle cx="212" cy="448" r="5" fill="#9333ea" />
<text x="24" y="444" font-size="13" font-weight="700">분가</text>
<text x="24" y="462" font-size="10" fill="#64748b">separate_household_core</text>
<line x1="230" y1="572" x2="1190" y2="572" stroke="#cbd5e1" />
<circle cx="212" cy="572" r="5" fill="#dc2626" />
<text x="24" y="568" font-size="13" font-weight="700">부양가족 발생</text>
<text x="24" y="586" font-size="10" fill="#64748b">dependent_care_core</text>
<line x1="270" y1="82" x2="270" y2="714" stroke="#e2e8f0" />
<text x="270" y="739" text-anchor="middle" font-size="11" fill="#475569">35</text>
<line x1="470" y1="82" x2="470" y2="714" stroke="#e2e8f0" />
<text x="470" y="739" text-anchor="middle" font-size="11" fill="#475569">40</text>
<line x1="670" y1="82" x2="670" y2="714" stroke="#e2e8f0" />
<text x="670" y="739" text-anchor="middle" font-size="11" fill="#475569">45</text>
<line x1="870" y1="82" x2="870" y2="714" stroke="#e2e8f0" />
<text x="870" y="739" text-anchor="middle" font-size="11" fill="#475569">50</text>
<line x1="1070" y1="82" x2="1070" y2="714" stroke="#e2e8f0" />
<text x="1070" y="739" text-anchor="middle" font-size="11" fill="#475569">55</text>
<line x1="1270" y1="82" x2="1270" y2="714" stroke="#e2e8f0" />
<text x="1270" y="739" text-anchor="middle" font-size="11" fill="#475569">60</text>
<line x1="270" y1="200" x2="430" y2="200" stroke="#2563eb" stroke-width="2.2" opacity="0.76" />
<line x1="430" y1="200" x2="510" y2="200" stroke="#2563eb" stroke-width="2.2" opacity="0.76" />
<line x1="510" y1="200" x2="550" y2="200" stroke="#2563eb" stroke-width="2.2" opacity="0.76" />
<line x1="550" y1="200" x2="670" y2="200" stroke="#2563eb" stroke-width="2.2" opacity="0.76" />

    <g>
      <circle cx="270" cy="200" r="4" fill="#2563eb" />
      <text x="270" y="178" text-anchor="middle" font-size="14" font-weight="700" fill="#111827">취업</text>
      <text x="270" y="194" text-anchor="middle" font-size="11" fill="#475569">age 35</text>
    </g>
    

    <g>
      <circle cx="430" cy="200" r="4" fill="#2563eb" />
      <text x="430" y="178" text-anchor="middle" font-size="14" font-weight="700" fill="#111827">유학</text>
      <text x="430" y="194" text-anchor="middle" font-size="11" fill="#475569">age 39</text>
    </g>
    

    <g>
      <circle cx="510" cy="200" r="4" fill="#2563eb" />
      <text x="510" y="178" text-anchor="middle" font-size="14" font-weight="700" fill="#111827">복직</text>
      <text x="510" y="194" text-anchor="middle" font-size="11" fill="#475569">age 41</text>
    </g>
    

    <g>
      <circle cx="550" cy="200" r="4" fill="#2563eb" />
      <text x="550" y="152" text-anchor="middle" font-size="14" font-weight="700" fill="#111827">교육</text>
      <text x="550" y="168" text-anchor="middle" font-size="11" fill="#475569">age 42</text>
    </g>
    

    <g>
      <circle cx="670" cy="200" r="4" fill="#2563eb" />
      <text x="670" y="178" text-anchor="middle" font-size="14" font-weight="700" fill="#111827">이직</text>
      <text x="670" y="194" text-anchor="middle" font-size="11" fill="#475569">age 45</text>
    </g>
    

    <g>
      <circle cx="710" cy="324" r="4" fill="#16a34a" />
      <text x="710" y="302" text-anchor="middle" font-size="14" font-weight="700" fill="#111827">결혼</text>
      <text x="710" y="318" text-anchor="middle" font-size="11" fill="#475569">age 46</text>
    </g>
    

    <g>
      <circle cx="1110" cy="448" r="4" fill="#9333ea" />
      <text x="1110" y="426" text-anchor="middle" font-size="14" font-weight="700" fill="#111827">분가</text>
      <text x="1110" y="442" text-anchor="middle" font-size="11" fill="#475569">age 56</text>
    </g>
    

    <g>
      <circle cx="1150" cy="572" r="4" fill="#dc2626" />
      <text x="1150" y="550" text-anchor="middle" font-size="14" font-weight="700" fill="#111827">부양가족 발생</text>
      <text x="1150" y="566" text-anchor="middle" font-size="11" fill="#475569">age 57</text>
    </g>
    
</svg>
