<?xml version="1.0" encoding="UTF-8"?>
<svg xmlns="http://www.w3.org/2000/svg" width="1000" height="650" viewBox="0 0 1000 650" role="img" aria-label="Correct-change F1 by Checkpoint">
<style>
text { font-family: Arial, 'DejaVu Sans', sans-serif; fill: #17202A; }
.title { font-size: 26px; font-weight: 700; }
.subtitle { font-size: 15px; fill: #5B6573; }
.axis-label { font-size: 16px; font-weight: 600; }
.tick { font-size: 14px; fill: #4B5563; }
.legend { font-size: 14px; font-weight: 600; }
</style>
<rect width="1000" height="650" fill="#FFFFFF"/>
<text x="500" y="42" text-anchor="middle" class="title">Correct-change F1 by Checkpoint</text>
<text x="500" y="70" text-anchor="middle" class="subtitle">Full Context · traj_010 · medium reasoning · provider-default sampling · parallel independent checkpoints · 5 anchor checkpoints · n = 1 trajectory</text>
<line x1="205" y1="112" x2="243" y2="112" stroke="#2672B8" stroke-width="3"/>
<circle cx="224.0" cy="112.0" r="6" fill="#2672B8" stroke="#FFFFFF" stroke-width="2"/>
<text x="253" y="117" class="legend">Claude Opus 5</text>
<line x1="445" y1="112" x2="483" y2="112" stroke="#D97706" stroke-width="3" stroke-dasharray="10 6"/>
<rect x="458.0" y="106.0" width="12" height="12" rx="1" fill="#D97706" stroke="#FFFFFF" stroke-width="2"/>
<text x="493" y="117" class="legend">Gemini 3.1 Pro Preview</text>
<line x1="725" y1="112" x2="763" y2="112" stroke="#4D7C0F" stroke-width="3" stroke-dasharray="12 5 3 5"/>
<polygon points="744.0,105.0 737.0,118.0 751.0,118.0" fill="#4D7C0F" stroke="#FFFFFF" stroke-width="2"/>
<text x="773" y="117" class="legend">GPT-5.6 Sol</text>
<line x1="105" y1="545.0" x2="955" y2="545.0" stroke="#DDE3EA" stroke-width="1"/>
<text x="91" y="550.0" text-anchor="end" class="tick">0%</text>
<line x1="105" y1="468.0" x2="955" y2="468.0" stroke="#DDE3EA" stroke-width="1"/>
<text x="91" y="473.0" text-anchor="end" class="tick">20%</text>
<line x1="105" y1="391.0" x2="955" y2="391.0" stroke="#DDE3EA" stroke-width="1"/>
<text x="91" y="396.0" text-anchor="end" class="tick">40%</text>
<line x1="105" y1="314.0" x2="955" y2="314.0" stroke="#DDE3EA" stroke-width="1"/>
<text x="91" y="319.0" text-anchor="end" class="tick">60%</text>
<line x1="105" y1="237.0" x2="955" y2="237.0" stroke="#DDE3EA" stroke-width="1"/>
<text x="91" y="242.0" text-anchor="end" class="tick">80%</text>
<line x1="105" y1="160.0" x2="955" y2="160.0" stroke="#DDE3EA" stroke-width="1"/>
<text x="91" y="165.0" text-anchor="end" class="tick">100%</text>
<line x1="105" y1="160" x2="105" y2="545" stroke="#7B8794" stroke-width="1.3"/>
<line x1="105" y1="545" x2="955" y2="545" stroke="#7B8794" stroke-width="1.3"/>
<line x1="105.0" y1="545" x2="105.0" y2="551" stroke="#7B8794" stroke-width="1"/>
<text x="105.0" y="573" text-anchor="middle" class="tick">60</text>
<line x1="317.5" y1="545" x2="317.5" y2="551" stroke="#7B8794" stroke-width="1"/>
<text x="317.5" y="573" text-anchor="middle" class="tick">120</text>
<line x1="530.0" y1="545" x2="530.0" y2="551" stroke="#7B8794" stroke-width="1"/>
<text x="530.0" y="573" text-anchor="middle" class="tick">180</text>
<line x1="742.5" y1="545" x2="742.5" y2="551" stroke="#7B8794" stroke-width="1"/>
<text x="742.5" y="573" text-anchor="middle" class="tick">240</text>
<line x1="955.0" y1="545" x2="955.0" y2="551" stroke="#7B8794" stroke-width="1"/>
<text x="955.0" y="573" text-anchor="middle" class="tick">300</text>
<polyline points="105.0,252.9 317.5,206.2 530.0,202.8 742.5,266.9 955.0,226.4" fill="none" stroke="#2672B8" stroke-width="3" stroke-linejoin="round" stroke-linecap="round"/>
<circle cx="105.0" cy="252.9" r="6" fill="#2672B8" stroke="#FFFFFF" stroke-width="2"/>
<circle cx="317.5" cy="206.2" r="6" fill="#2672B8" stroke="#FFFFFF" stroke-width="2"/>
<circle cx="530.0" cy="202.8" r="6" fill="#2672B8" stroke="#FFFFFF" stroke-width="2"/>
<circle cx="742.5" cy="266.9" r="6" fill="#2672B8" stroke="#FFFFFF" stroke-width="2"/>
<circle cx="955.0" cy="226.4" r="6" fill="#2672B8" stroke="#FFFFFF" stroke-width="2"/>
<polyline points="105.0,252.9 317.5,248.8 530.0,231.3 742.5,347.6 955.0,288.3" fill="none" stroke="#D97706" stroke-width="3" stroke-linejoin="round" stroke-linecap="round" stroke-dasharray="10 6"/>
<rect x="99.0" y="246.9" width="12" height="12" rx="1" fill="#D97706" stroke="#FFFFFF" stroke-width="2"/>
<rect x="311.5" y="242.8" width="12" height="12" rx="1" fill="#D97706" stroke="#FFFFFF" stroke-width="2"/>
<rect x="524.0" y="225.3" width="12" height="12" rx="1" fill="#D97706" stroke="#FFFFFF" stroke-width="2"/>
<rect x="736.5" y="341.6" width="12" height="12" rx="1" fill="#D97706" stroke="#FFFFFF" stroke-width="2"/>
<rect x="949.0" y="282.3" width="12" height="12" rx="1" fill="#D97706" stroke="#FFFFFF" stroke-width="2"/>
<polyline points="105.0,270.0 317.5,306.0 530.0,306.0 742.5,371.8 955.0,346.3" fill="none" stroke="#4D7C0F" stroke-width="3" stroke-linejoin="round" stroke-linecap="round" stroke-dasharray="12 5 3 5"/>
<polygon points="105.0,263.0 98.0,276.0 112.0,276.0" fill="#4D7C0F" stroke="#FFFFFF" stroke-width="2"/>
<polygon points="317.5,299.0 310.5,312.0 324.5,312.0" fill="#4D7C0F" stroke="#FFFFFF" stroke-width="2"/>
<polygon points="530.0,299.0 523.0,312.0 537.0,312.0" fill="#4D7C0F" stroke="#FFFFFF" stroke-width="2"/>
<polygon points="742.5,364.8 735.5,377.8 749.5,377.8" fill="#4D7C0F" stroke="#FFFFFF" stroke-width="2"/>
<polygon points="955.0,339.3 948.0,352.3 962.0,352.3" fill="#4D7C0F" stroke="#FFFFFF" stroke-width="2"/>
<text x="530" y="618" text-anchor="middle" class="axis-label">Dialogue checkpoint (sessions)</text>
<text x="28" y="353" text-anchor="middle" class="axis-label" transform="rotate(-90 28 353)">Score (%)</text>
</svg>
